<svg width="122" height="25" viewBox="0 0 122 25" fill="none" xmlns="http://www.w3.org/2000/svg">
<path d="M8.54 23.13C8.54 23.39 7.93 23.6 6.71 23.76C5.49 23.92 4.27 24 3.05 24C1.83 24 1.05 23.93 0.71 23.79C0.37 23.65 0.2 23.43 0.2 23.13V3.84C0.2 2.88 3.08 2.4 8.84 2.4C12.32 2.4 14.62 2.64 15.74 3.12C17.1 3.68 18.02 4.44 18.5 5.4C19.14 6.64 19.46 8.23 19.46 10.17C19.46 12.83 19 14.76 18.08 15.96C17.42 16.84 16.76 17.41 16.1 17.67C15.44 17.93 14.89 18.12 14.45 18.24C14.03 18.34 13.5 18.42 12.86 18.48C11.98 18.56 10.78 18.6 9.26 18.6L8.54 18.57V23.13ZM8.57 13.59H9.29C9.67 13.59 9.97 13.54 10.19 13.44C10.41 13.32 10.6 13.02 10.76 12.54C10.94 12.04 11.03 11.35 11.03 10.47C11.03 9.57 10.93 8.89 10.73 8.43C10.55 7.95 10.36 7.67 10.16 7.59C9.98 7.49 9.76 7.44 9.5 7.44H8.57V13.59ZM31.0109 23.28V14.94C31.0109 13.44 30.9509 12.35 30.8309 11.67C30.7109 10.99 30.4209 10.65 29.9609 10.65C29.5609 10.65 29.3609 10.92 29.3609 11.46V23.28C29.3609 23.5 28.7809 23.68 27.6209 23.82C26.4609 23.94 25.2709 24 24.0509 24C22.8309 24 22.0609 23.95 21.7409 23.85C21.4209 23.73 21.2609 23.54 21.2609 23.28V2.49C21.2609 2.07 21.8409 1.65 23.0009 1.23C24.1609 0.809999 25.3809 0.599999 26.6609 0.599999C28.0009 0.599999 28.8509 0.849999 29.2109 1.35C29.3309 1.51 29.3909 1.68 29.3909 1.86V6.27L29.0609 8.34H29.2709C29.5509 7.92 29.9909 7.55 30.5909 7.23C31.7109 6.63 32.9309 6.33 34.2509 6.33C36.1509 6.33 37.4309 6.94 38.0909 8.16C38.7709 9.36 39.1109 11.32 39.1109 14.04V23.28C39.1109 23.5 38.5209 23.68 37.3409 23.82C36.1809 23.94 34.9909 24 33.7709 24C32.5709 24 31.8109 23.95 31.4909 23.85C31.1709 23.73 31.0109 23.54 31.0109 23.28ZM50.4521 24.27C48.9521 24.27 47.6621 24.14 46.5821 23.88C45.5021 23.62 44.5221 23.16 43.6421 22.5C41.8221 21.18 40.9121 18.72 40.9121 15.12C40.9121 11.92 41.8421 9.63 43.7021 8.25C45.4421 6.97 47.6921 6.33 50.4521 6.33C51.6321 6.33 52.6421 6.39 53.4821 6.51C54.3221 6.61 55.1721 6.84 56.0321 7.2C56.9121 7.56 57.6121 8.05 58.1321 8.67C58.6721 9.29 59.1121 10.15 59.4521 11.25C59.7921 12.33 59.9621 13.62 59.9621 15.12C59.9621 18.16 59.1021 20.45 57.3821 21.99C55.6621 23.51 53.3521 24.27 50.4521 24.27ZM49.4021 18.42C49.5421 19.14 49.6821 19.57 49.8221 19.71C49.9821 19.85 50.1821 19.92 50.4221 19.92C50.6821 19.92 50.8821 19.85 51.0221 19.71C51.1821 19.57 51.3221 19.14 51.4421 18.42C51.5821 17.7 51.6521 16.8 51.6521 15.72C51.6521 14.62 51.6221 13.78 51.5621 13.2C51.5221 12.6 51.4621 12.14 51.3821 11.82C51.3221 11.5 51.2321 11.25 51.1121 11.07C50.9321 10.81 50.7121 10.68 50.4521 10.68C50.2121 10.68 50.0121 10.76 49.8521 10.92C49.6921 11.06 49.5421 11.5 49.4021 12.24C49.2621 12.96 49.1921 13.99 49.1921 15.33C49.1921 16.67 49.2621 17.7 49.4021 18.42ZM73.5392 23.73C73.1792 24.07 72.3592 24.24 71.0792 24.24C69.7992 24.24 68.7392 24.16 67.8992 24C67.0592 23.82 66.2592 23.48 65.4992 22.98C64.0392 22 63.3092 19.96 63.3092 16.86V12.18H61.8092C61.5892 12.18 61.3992 11.95 61.2392 11.49C61.0792 11.03 60.9992 10.4 60.9992 9.6C60.9992 8.8 61.1192 8.1 61.3592 7.5C61.6192 6.88 61.9492 6.57 62.3492 6.57H63.3092V2.94C63.3092 2.32 63.9092 1.82 65.1092 1.44C66.3292 1.06 67.5192 0.869999 68.6792 0.869999C70.4992 0.869999 71.4092 1.32 71.4092 2.22V6.57H73.6292C74.1492 6.57 74.4092 7.32 74.4092 8.82C74.4092 9.8 74.2892 10.61 74.0492 11.25C73.8292 11.87 73.5392 12.18 73.1792 12.18H71.4092V17.67C71.4092 18.21 71.6392 18.6 72.0992 18.84C72.5592 19.06 72.9592 19.17 73.2992 19.17C73.6592 19.17 73.8792 19.34 73.9592 19.68C74.0392 20.02 74.0792 20.53 74.0792 21.21C74.0792 22.55 73.8992 23.39 73.5392 23.73ZM85.4619 24.27C83.9619 24.27 82.6719 24.14 81.5919 23.88C80.5119 23.62 79.5319 23.16 78.6519 22.5C76.8319 21.18 75.9219 18.72 75.9219 15.12C75.9219 11.92 76.8519 9.63 78.7119 8.25C80.4519 6.97 82.7019 6.33 85.4619 6.33C86.6419 6.33 87.6519 6.39 88.4919 6.51C89.3319 6.61 90.1819 6.84 91.0419 7.2C91.9219 7.56 92.6219 8.05 93.1419 8.67C93.6819 9.29 94.1219 10.15 94.4619 11.25C94.8019 12.33 94.9719 13.62 94.9719 15.12C94.9719 18.16 94.1119 20.45 92.3919 21.99C90.6719 23.51 88.3619 24.27 85.4619 24.27ZM84.4119 18.42C84.5519 19.14 84.6919 19.57 84.8319 19.71C84.9919 19.85 85.1919 19.92 85.4319 19.92C85.6919 19.92 85.8919 19.85 86.0319 19.71C86.1919 19.57 86.3319 19.14 86.4519 18.42C86.5919 17.7 86.6619 16.8 86.6619 15.72C86.6619 14.62 86.6319 13.78 86.5719 13.2C86.5319 12.6 86.4719 12.14 86.3919 11.82C86.3319 11.5 86.2419 11.25 86.1219 11.07C85.9419 10.81 85.7219 10.68 85.4619 10.68C85.2219 10.68 85.0219 10.76 84.8619 10.92C84.7019 11.06 84.5519 11.5 84.4119 12.24C84.2719 12.96 84.2019 13.99 84.2019 15.33C84.2019 16.67 84.2719 17.7 84.4119 18.42ZM104.919 24.27C101.599 24.27 99.169 23.95 97.629 23.31C96.849 22.97 96.459 22.64 96.459 22.32C96.459 21.5 96.699 20.54 97.179 19.44C97.659 18.34 98.079 17.79 98.439 17.79C98.639 17.79 99.309 18.01 100.449 18.45C101.609 18.89 102.579 19.11 103.359 19.11C104.159 19.11 104.679 19.06 104.919 18.96C105.179 18.86 105.309 18.67 105.309 18.39C105.309 18.09 105.109 17.86 104.709 17.7C104.309 17.52 103.809 17.4 103.209 17.34C102.609 17.28 101.959 17.16 101.259 16.98C100.579 16.8 99.939 16.57 99.339 16.29C98.739 16.01 98.239 15.55 97.839 14.91C97.439 14.25 97.239 13.55 97.239 12.81C97.239 12.05 97.259 11.49 97.299 11.13C97.339 10.75 97.499 10.23 97.779 9.57C98.079 8.89 98.489 8.34 99.009 7.92C99.549 7.5 100.369 7.12 101.469 6.78C102.589 6.44 103.839 6.27 105.219 6.27C106.599 6.27 107.749 6.32 108.669 6.42C109.609 6.5 110.339 6.61 110.859 6.75C111.399 6.89 111.839 7.05 112.179 7.23C112.759 7.53 113.049 7.86 113.049 8.22C113.049 9 112.769 9.9 112.209 10.92C111.649 11.94 111.199 12.45 110.859 12.45C110.539 12.45 109.829 12.28 108.729 11.94C107.629 11.58 106.819 11.4 106.299 11.4C105.459 11.4 105.039 11.64 105.039 12.12C105.039 12.42 105.319 12.65 105.879 12.81C106.459 12.95 107.149 13.1 107.949 13.26C108.749 13.42 109.549 13.65 110.349 13.95C111.169 14.23 111.859 14.75 112.419 15.51C112.999 16.27 113.289 17.23 113.289 18.39C113.289 22.31 110.499 24.27 104.919 24.27Z" fill="#262626"/>
<path d="M121.639 21.18C121.639 22.36 121.369 23.17 120.829 23.61C120.289 24.05 119.489 24.27 118.429 24.27C117.389 24.27 116.599 24.05 116.059 23.61C115.519 23.17 115.249 22.36 115.249 21.18C115.249 20 115.519 19.22 116.059 18.84C116.619 18.44 117.419 18.24 118.459 18.24C119.499 18.24 120.289 18.44 120.829 18.84C121.369 19.22 121.639 20 121.639 21.18Z" fill="#FE6C71"/>
</svg>
